<mxfile host="app.diagrams.net" agent="Mozilla/5.0 (Windows NT 10.0; Win64; x64) AppleWebKit/537.36 (KHTML, like Gecko) Chrome/139.0.0.0 Safari/537.36" version="28.1.0">
  <diagram name="Page-1" id="BwhCjCadmMoQrYB-hJoQ">
    <mxGraphModel dx="1426" dy="743" grid="1" gridSize="10" guides="1" tooltips="1" connect="1" arrows="1" fold="1" page="1" pageScale="1" pageWidth="850" pageHeight="1100" math="0" shadow="0">
      <root>
        <mxCell id="0" />
        <mxCell id="1" parent="0" />
        <mxCell id="nyhQogKqammJ72nXU2j9-1" value="ICommand&amp;nbsp;&lt;div&gt;{&lt;div&gt;Execute&lt;/div&gt;&lt;div&gt;Validate&lt;/div&gt;&lt;div&gt;}&lt;/div&gt;&lt;/div&gt;" style="rounded=0;whiteSpace=wrap;html=1;" vertex="1" parent="1">
          <mxGeometry x="110" y="110" width="100" height="100" as="geometry" />
        </mxCell>
        <mxCell id="nyhQogKqammJ72nXU2j9-2" value="ICommandInvoker&amp;nbsp;&lt;div&gt;{&lt;br&gt;&lt;div&gt;InvokeCommand&lt;/div&gt;&lt;div&gt;FinishedCommandExecution&lt;/div&gt;&lt;/div&gt;&lt;div&gt;}&lt;/div&gt;" style="rounded=0;whiteSpace=wrap;html=1;" vertex="1" parent="1">
          <mxGeometry x="290" y="110" width="190" height="90" as="geometry" />
        </mxCell>
        <mxCell id="nyhQogKqammJ72nXU2j9-3" value="ActionsManager &amp;gt; ICommandInvoker" style="rounded=0;whiteSpace=wrap;html=1;" vertex="1" parent="1">
          <mxGeometry x="325" y="220" width="120" height="60" as="geometry" />
        </mxCell>
        <mxCell id="nyhQogKqammJ72nXU2j9-4" value="Boomerang -&amp;gt; Throw(Invoker),&lt;div&gt;Catch(Invoker)&lt;/div&gt;" style="whiteSpace=wrap;html=1;" vertex="1" parent="1">
          <mxGeometry x="530" y="110" width="120" height="60" as="geometry" />
        </mxCell>
        <mxCell id="nyhQogKqammJ72nXU2j9-5" value="CallCommand(player) &amp;gt; ICommand" style="whiteSpace=wrap;html=1;" vertex="1" parent="1">
          <mxGeometry x="90" y="230" width="150" height="60" as="geometry" />
        </mxCell>
        <mxCell id="nyhQogKqammJ72nXU2j9-6" value="MoveCommand(player) &amp;gt; ICommand" style="whiteSpace=wrap;html=1;" vertex="1" parent="1">
          <mxGeometry x="90" y="310" width="150" height="60" as="geometry" />
        </mxCell>
        <mxCell id="nyhQogKqammJ72nXU2j9-8" value="PlayerControler -&amp;gt; Recebe input - Cria comandos" style="whiteSpace=wrap;html=1;" vertex="1" parent="1">
          <mxGeometry x="670" y="110" width="120" height="60" as="geometry" />
        </mxCell>
        <mxCell id="nyhQogKqammJ72nXU2j9-9" value="ThrowCommand(player) &amp;gt; ICommand" style="whiteSpace=wrap;html=1;" vertex="1" parent="1">
          <mxGeometry x="90" y="390" width="150" height="60" as="geometry" />
        </mxCell>
        <mxCell id="nyhQogKqammJ72nXU2j9-10" value="Player -&amp;gt; Throw(invoker),&lt;div&gt;Catch(invoker)&lt;/div&gt;&lt;div&gt;Move(invoker)&lt;/div&gt;" style="whiteSpace=wrap;html=1;" vertex="1" parent="1">
          <mxGeometry x="600" y="190" width="120" height="60" as="geometry" />
        </mxCell>
      </root>
    </mxGraphModel>
  </diagram>
</mxfile>
